<?xml version="1.0" encoding="utf-8"?>
<svg version="1.0" width="1024.000000pt" height="1024.000000pt" viewBox="0 0 1024.000000 1024.000000" preserveAspectRatio="xMidYMid meet" xmlns="http://www.w3.org/2000/svg">
  <defs/>
  <g transform="matrix(0.162582, 0, 0, -0.162582, -338.536377, 1332.66687)" fill="#000000" stroke="none" style="">
    <path d="M6367 8119 c-85 -24 -137 -50 -205 -101 -52 -40 -128 -143 -157 -212&#10;-17 -41 -15 -40 -52 -25 -211 82 -591 140 -823 124 -366 -26 -722 -124 -1020&#10;-282 -122 -65 -287 -173 -380 -249 -159 -130 -361 -359 -488 -554 -57 -87&#10;-149 -265 -173 -334 -10 -28 -30 -51 -69 -80 -83 -61 -215 -191 -276 -273 -95&#10;-126 -140 -232 -180 -423 -35 -166 -34 -442 0 -650 78 -462 237 -827 511&#10;-1174 231 -293 519 -554 745 -672 53 -28 54 -29 25 -32 -67 -8 -369 -75 -503&#10;-112 -286 -80 -440 -149 -519 -232 -57 -61 -74 -106 -63 -166 16 -92 87 -160&#10;252 -240 128 -63 246 -102 459 -153 509 -120 1117 -183 1784 -184 754 0 1305&#10;62 1874 211 230 60 370 118 499 207 161 111 186 241 67 345 -126 112 -534 241&#10;-965 307 -25 4 -50 10 -57 14 -7 3 52 49 140 108 172 115 232 165 401 331 194&#10;192 366 416 474 622 164 310 247 578 288 932 14 125 15 168 4 343 -18 302 -34&#10;358 -155 555 -68 110 -199 245 -311 321 -51 34 -74 56 -78 76 -12 45 -88 201&#10;-147 298 -47 78 -159 226 -260 346 l-31 37 36 49 c50 69 76 133 92 222 27 153&#10;12 258 -58 400 -32 64 -61 104 -123 167 -83 86 -129 114 -230 140 -75 20 -246&#10;17 -328 -7z m278 -144 l40 -14 -40 6 c-50 8 -58 8 -125 -1 -58 -9 -64 1 -8 14&#10;49 12 88 10 133 -5z m-253 -42 c40 -48 32 -131 -18 -181 -37 -37 -44 -37 -131&#10;5 -48 22 -53 28 -53 56 0 18 9 46 20 64 37 61 148 95 182 56z m280 -41 c18&#10;-18 22 -36 20 -92 -5 -98 -182 -81 -182 17 0 37 22 88 42 97 24 10 102 -4 120&#10;-22z m-1272 -162 c140 -11 343 -51 465 -93 l70 -24 6 -74 c13 -155 57 -248&#10;173 -367 114 -118 244 -179 401 -189 87 -6 197 17 275 57 22 11 44 20 49 20&#10;15 0 190 -215 259 -320 77 -114 181 -322 217 -431 65 -193 75 -416 13 -288&#10;-21 46 -34 55 -103 79 -70 24 -130 25 -210 4 -168 -43 -328 -198 -420 -406&#10;-17 -37 -33 -68 -38 -68 -4 0 -31 13 -60 29 -62 35 -134 51 -225 51 -93 0&#10;-180 -23 -290 -75 -75 -36 -107 -58 -156 -109 -34 -34 -70 -82 -81 -105 -16&#10;-33 -24 -40 -40 -36 -49 14 -137 17 -186 5 -73 -17 -162 -65 -214 -116 l-43&#10;-41 -58 54 c-121 112 -272 150 -394 99 -11 -4 -21 5 -34 29 -27 49 -116 151&#10;-164 186 -109 80 -251 125 -367 116 -88 -7 -199 -37 -254 -68 l-43 -24 -36 40&#10;c-54 61 -313 335 -352 374 -76 75 -202 103 -281 63 -37 -19 -113 -78 -183&#10;-142 -31 -28 -37 -31 -32 -14 4 11 15 65 26 120 39 206 156 487 282 685 61 96&#10;231 300 319 384 144 138 376 301 527 372 135 63 364 139 540 179 223 50 399&#10;62 642 44z m824 -34 c72 -30 101 -122 55 -180 -18 -22 -28 -26 -74 -26 -30 0&#10;-65 4 -80 10 -56 21 -56 121 0 177 37 37 51 39 99 19z m302 -74 c-44 -4 -86 4&#10;-86 16 0 5 28 3 63 -2 57 -10 59 -11 23 -14z m1090 -1559 c107 -141 169 -316&#10;149 -419 l-7 -39 -20 49 c-10 28 -39 76 -63 108 -74 98 -101 157 -129 276 -15&#10;63 -30 121 -33 130 -10 29 44 -27 103 -105z m-4646 92 c0 -3 -7 -22 -16 -43&#10;-8 -20 -31 -99 -50 -176 -19 -76 -39 -148 -45 -160 -6 -11 -34 -43 -62 -71&#10;-29 -27 -57 -59 -64 -70 -11 -18 -12 -16 -12 20 -2 120 49 271 126 378 67 92&#10;123 147 123 122z m466 -222 c32 -27 75 -64 94 -84 52 -52 221 -239 258 -286&#10;l32 -41 -26 -16 c-13 -10 -30 -28 -36 -42 -13 -27 -25 -31 -30 -9 -6 28 -202&#10;-126 -335 -263 -76 -78 -85 -84 -113 -78 -28 5 -30 4 -20 -14 17 -31 28 -32&#10;57 -6 30 28 83 51 83 35 0 -5 19 -9 41 -9 35 0 40 -2 30 -14 -9 -11 -9 -20 -2&#10;-35 15 -27 14 -31 -9 -31 -12 0 -20 -7 -20 -16 0 -11 -6 -15 -20 -11 -18 5&#10;-18 4 -3 -19 l16 -25 -29 13 c-16 7 -53 27 -81 45 -29 18 -79 46 -112 63 -65&#10;32 -83 50 -52 50 26 0 31 20 13 48 -8 12 -10 22 -6 22 5 0 15 -9 22 -20 17&#10;-28 36 -26 21 3 -19 36 -241 260 -277 280 -40 22 -53 17 -17 -7 14 -9 25 -26&#10;25 -37 0 -27 19 -61 30 -54 5 3 12 0 16 -6 10 -17 -58 -1 -72 17 -6 8 -14 14&#10;-18 14 -11 0 -6 -18 10 -35 9 -9 13 -19 10 -23 -9 -8 -39 30 -61 75 -20 42&#10;-19 86 5 133 37 72 454 430 501 430 9 0 43 -21 75 -47z m3658 21 c9 -8 16 -29&#10;16 -45 0 -37 -74 -112 -152 -154 -29 -16 -79 -50 -111 -77 -48 -39 -62 -46&#10;-77 -38 -32 17 -32 28 -3 82 43 78 118 155 202 204 82 48 101 52 125 28z m336&#10;-275 c-14 -6 -38 -17 -54 -25 -26 -13 -28 -13 -16 1 7 8 27 19 44 24 42 12 57&#10;12 26 0z m-705 -79 c-5 -21 -1 -39 11 -58 l17 -27 -21 19 c-22 19 -28 50 -16&#10;80 10 27 16 18 9 -14z m-2297 -79 c75 -38 121 -78 185 -163 l28 -37 -45 -55&#10;c-52 -64 -78 -118 -111 -233 -13 -45 -31 -95 -39 -111 -20 -38 -82 -98 -118&#10;-113 -24 -10 -26 -14 -16 -26 7 -9 21 -19 33 -24 18 -8 17 -9 -5 -5 -14 2 -33&#10;7 -43 11 -13 5 -16 3 -11 -8 6 -18 -16 -26 -61 -24 -18 1 -29 7 -28 15 2 6 -3&#10;12 -10 13 -6 0 6 6 28 13 l40 12 -42 7 c-23 4 -78 23 -122 42 -92 40 -101 42&#10;-76 15 10 -11 23 -20 29 -20 6 0 27 -8 46 -19 26 -13 35 -25 35 -44 1 -22 -3&#10;-25 -20 -22 -144 33 -190 46 -208 58 -12 8 -38 46 -57 83 -31 62 -35 79 -38&#10;170 -4 106 9 178 48 254 29 58 116 154 162 180 74 42 177 69 261 70 71 0 84&#10;-3 155 -39z m2003 1 c74 -38 158 -106 146 -118 -5 -5 -19 4 -32 21 l-24 29 4&#10;-47 c4 -54 14 -75 25 -57 8 13 30 -143 30 -211 -1 -101 -21 -144 -115 -248&#10;-56 -62 -156 -111 -228 -111 -53 0 -133 30 -162 60 -18 19 -32 26 -39 21 -8&#10;-7 -12 21 -13 92 -2 96 -3 105 -42 183 -23 45 -62 103 -86 129 -30 30 -44 52&#10;-40 63 8 27 128 148 166 168 68 36 190 63 270 61 63 -2 86 -7 140 -35z m-3441&#10;-117 c0 -2 -7 -5 -15 -9 -9 -3 -15 0 -15 9 0 9 6 12 15 9 8 -4 15 -7 15 -9z&#10;m-232 -130 c184 -253 524 -455 1047 -621 252 -80 447 -123 733 -160 259 -34&#10;300 -37 623 -41 225 -4 393 -1 479 6 162 15 545 65 655 87 276 54 699 199 905&#10;311 251 135 474 317 587 478 l35 50 -7 -65 c-18 -168 -58 -379 -98 -520 -49&#10;-169 -119 -354 -144 -383 -37 -40 -367 -183 -523 -226 -270 -75 -380 -118&#10;-380 -149 0 -10 -3 -13 -8 -7 -13 18 -46 16 -162 -9 -248 -53 -478 -82 -923&#10;-117 -357 -27 -951 10 -1432 91 -240 40 -660 156 -909 251 -71 27 -135 49&#10;-141 49 -16 0 86 -194 152 -290 29 -41 86 -113 128 -160 74 -83 135 -163 135&#10;-179 0 -4 16 -26 35 -48 54 -64 42 -61 -37 8 -149 129 -302 298 -420 464 -49&#10;69 -200 353 -238 450 -46 114 -108 324 -131 437 -21 110 -49 326 -49 378 1 33&#10;2 34 16 15 8 -11 40 -56 72 -100z m4427 -19 c11 -20 17 -37 15 -38 -3 -2 -21&#10;-16 -40 -33 l-35 -30 30 33 c18 20 26 36 19 40 -5 4 -9 14 -9 22 1 8 -6 26&#10;-14 40 -14 23 -14 24 0 13 9 -7 24 -28 34 -47z m-2188 -25 c57 -27 120 -93&#10;149 -157 27 -61 31 -88 10 -59 -13 18 -15 16 -21 -30 -18 -134 -73 -213 -162&#10;-234 -58 -14 -108 -5 -224 40 -94 38 -104 55 -104 174 0 63 5 89 23 122 72&#10;137 211 197 329 144z m683 -2 c55 -25 96 -62 120 -109 17 -33 17 -42 5 -95&#10;-23 -102 -34 -130 -73 -186 -45 -64 -101 -99 -174 -105 -47 -5 -61 -1 -127 34&#10;l-74 39 2 79 c1 49 -4 99 -14 132 -15 51 -15 55 1 75 122 147 221 187 334 136z&#10;m-2027 -321 l15 -46 -46 20 c-26 11 -51 25 -57 30 -5 6 0 5 13 -2 32 -16 52&#10;-6 52 26 0 34 3 30 23 -28z m-138 24 c-3 -3 -11 0 -18 7 -9 10 -8 11 6 5 10&#10;-3 15 -9 12 -12z m962 -104 c-3 -8 -6 -5 -6 6 -1 11 2 17 5 13 3 -3 4 -12 1&#10;-19z m63 -146 c0 -7 -4 -10 -10 -7 -5 3 -11 16 -11 28 -1 17 -2 18 -6 5 -7&#10;-28 -33 -22 -33 7 0 17 -7 28 -22 34 l-22 8 22 5 c12 4 22 14 22 25 1 19 59&#10;-83 60 -105z m-390 88 c0 -5 -5 -10 -11 -10 -5 0 -7 5 -4 10 3 6 8 10 11 10 2&#10;0 4 -4 4 -10z m1840 -43 c13 -11 25 -37 17 -37 -2 0 -14 11 -27 25 -24 26 -17&#10;34 10 12z m-1687 -24 c-7 -2 -19 -2 -25 0 -7 3 -2 5 12 5 14 0 19 -2 13 -5z&#10;m-329 -774 c75 -35 66 -166 -14 -199 -26 -11 -36 -10 -71 5 -50 23 -69 49 -69&#10;95 1 39 16 65 57 92 32 21 62 23 97 7z m1265 -244 c33 -17 41 -33 41 -86 0&#10;-57 -29 -83 -87 -76 -89 10 -113 79 -49 143 38 38 54 41 95 19z m-981 -31 c24&#10;-16 30 -52 10 -58 -49 -15 -68 -15 -89 3 -21 16 -22 22 -11 45 14 31 54 35 90&#10;10z m1427 -22 c8 -23 -3 -49 -25 -55 -36 -9 -66 53 -39 80 14 14 55 -2 64 -25z&#10;m-2074 -79 c13 -16 12 -17 -3 -4 -17 13 -22 21 -14 21 2 0 10 -8 17 -17z&#10;m2269 -268 c-28 -16 -60 -20 -44 -6 8 9 36 18 59 19 6 1 -1 -5 -15 -13z m697&#10;-202 c-3 -10 -5 -4 -5 12 0 17 2 24 5 18 2 -7 2 -21 0 -30z m-2433 -48 c79&#10;-46 191 -86 381 -135 261 -67 377 -88 567 -100 378 -25 890 68 1235 226 42 19&#10;77 34 79 34 2 0 1 -15 -3 -32 -17 -88 -76 -174 -142 -207 -174 -87 -468 -123&#10;-1026 -125 -393 -1 -535 10 -782 59 -190 38 -287 94 -338 196 -23 43 -34 109&#10;-19 109 3 0 24 -11 48 -25z" style="fill: rgb(224, 18, 79);"/>
    <path d="M5159 7615 c-40 -27 -49 -42 -49 -87 0 -44 59 -98 107 -98 50 0 103&#10;54 103 105 0 29 -8 45 -34 71 -41 41 -77 44 -127 9z" style="fill: rgb(224, 18, 79);"/>
    <path d="M5499 7471 c-46 -47 -38 -81 40 -164 42 -45 80 -67 115 -67 32 0 82&#10;43 88 75 8 39 -25 97 -79 143 -42 35 -58 42 -93 42 -33 0 -48 -6 -71 -29z" style="fill: rgb(224, 18, 79);"/>
    <path d="M4833 7444 c-51 -25 -103 -89 -103 -125 0 -66 59 -119 117 -104 74&#10;18 153 89 153 138 0 31 -29 76 -60 92 -37 19 -67 19 -107 -1z" style="fill: rgb(224, 18, 79);"/>
    <path d="M5203 7248 c-45 -48 -63 -90 -63 -148 0 -43 5 -56 29 -80 38 -39 75&#10;-47 117 -26 48 22 74 69 74 134 0 60 -17 101 -56 131 -37 29 -65 26 -101 -11z" style="fill: rgb(224, 18, 79);"/>
    <path d="M4425 6757 c-111 -37 -166 -91 -197 -190 -47 -156 22 -301 176 -373&#10;99 -46 226 -25 301 51 65 64 99 144 99 230 0 60 -4 79 -34 133 -18 35 -48 75&#10;-65 88 -79 60 -202 87 -280 61z m98 -131 c51 -47 43 -120 -17 -157 -67 -41&#10;-150 -4 -162 71 -14 86 113 147 179 86z" style="fill: rgb(224, 18, 79);"/>
    <path d="M5915 6761 c-138 -36 -229 -153 -229 -296 0 -56 6 -80 27 -122 93&#10;-181 294 -229 453 -108 65 50 121 189 108 270 -16 100 -88 194 -180 236 -47&#10;21 -136 31 -179 20z m42 -111 c55 -20 78 -91 48 -150 -19 -37 -43 -50 -93 -50&#10;-48 0 -82 32 -89 87 -7 54 25 92 103 123 1 0 14 -5 31 -10z" style="fill: rgb(224, 18, 79);"/>
    <path d="M3620 6650 c20 -13 43 -13 35 0 -3 6 -16 10 -28 10 -18 0 -19 -2 -7&#10;-10z" style="fill: rgb(224, 18, 79);"/>
    <path d="M4986 6324 c-34 -34 -34 -75 0 -142 62 -124 210 -188 346 -148 142&#10;41 247 218 173 291 -48 49 -103 24 -134 -60 -22 -58 -46 -75 -111 -75 -69 0&#10;-111 26 -140 88 -14 29 -32 57 -40 62 -27 18 -67 11 -94 -16z" style="fill: rgb(224, 18, 79);"/>
    <path d="M4005 6161 c-50 -13 -74 -34 -91 -78 -13 -33 -14 -48 -5 -76 13 -39&#10;54 -81 92 -96 46 -17 274 1 321 25 79 41 77 148 -4 206 -30 21 -45 23 -158 25&#10;-69 1 -138 -2 -155 -6z" style="fill: rgb(224, 18, 79);"/>
    <path d="M6230 6147 c-48 -16 -62 -27 -89 -65 -41 -59 -11 -136 66 -168 22&#10;-10 75 -14 165 -14 146 0 170 8 209 66 37 56 12 140 -52 178 -33 19 -244 21&#10;-299 3z" style="fill: rgb(224, 18, 79);"/>
    <path d="M4505 5358 c4 -35 12 -74 18 -88 17 -41 20 0 7 80 -15 89 -35 95 -25&#10;8z" style="fill: rgb(224, 18, 79);"/>
    <path d="M4168 5302 c-7 -10 -26 -27 -41 -37 -15 -10 -34 -30 -41 -44 -13 -24&#10;-21 -102 -18 -163 2 -34 62 -98 91 -98 32 0 60 71 68 169 l6 80 -32 32 c-28&#10;28 -31 35 -22 56 13 28 7 30 -11 5z" style="fill: rgb(224, 18, 79);"/>
    <path d="M4281 5256 c-27 -28 -38 -90 -21 -110 6 -9 9 -20 5 -26 -10 -16 14&#10;-117 34 -142 18 -21 19 -21 45 -5 43 29 66 86 66 167 0 63 -3 74 -26 95 -14&#10;13 -38 28 -54 33 -24 9 -31 7 -49 -12z" style="fill: rgb(224, 18, 79);"/>
    <path d="M6293 5243 l-35 -36 -25 31 c-41 53 -85 34 -96 -42 -4 -21 -16 -48&#10;-28 -59 -17 -16 -20 -28 -16 -64 5 -51 35 -87 83 -103 41 -14 51 -9 59 33 11&#10;55 26 97 35 97 5 0 14 -15 20 -34 15 -47 54 -86 84 -86 32 0 56 34 67 96 8 42&#10;5 54 -28 125 -45 94 -65 101 -120 42z" style="fill: rgb(224, 18, 79);"/>
    <path d="M6043 4965 c0 -22 2 -30 4 -17 2 12 2 30 0 40 -3 9 -5 -1 -4 -23z" style="fill: rgb(224, 18, 79);"/>
  </g>
</svg>